Coordinates
version=1
nRows=5
nColumns=40
inDegrees=yes

Units are S.I. units (second, meters, Newtons, ...)
Angles are in degrees.

endheader
time	pelvis_tilt	pelvis_list	pelvis_rotation	pelvis_tx	pelvis_ty	pelvis_tz	hip_flexion_r	hip_adduction_r	hip_rotation_r	knee_angle_r	knee_angle_r_beta	ankle_angle_r	subtalar_angle_r	mtp_angle_r	hip_flexion_l	hip_adduction_l	hip_rotation_l	knee_angle_l	knee_angle_l_beta	ankle_angle_l	subtalar_angle_l	mtp_angle_l	lumbar_extension	lumbar_bending	lumbar_rotation	arm_flex_r	arm_add_r	arm_rot_r	elbow_flex_r	pro_sup_r	wrist_flex_r	wrist_dev_r	arm_flex_l	arm_add_l	arm_rot_l	elbow_flex_l	pro_sup_l	wrist_flex_l	wrist_dev_l
      0.66000000	      3.31590247	     -1.38725395	      3.37585480	     -0.49281224	      0.88017425	      0.97567177	     23.32398615	     -1.78943003	    -20.93930982	    -18.00984894	     -0.31433116	     -3.24333609	      1.88828570	     -5.77028074	    -14.87365492	      1.52701628	      7.58364082	    -17.41780640	     -0.30399807	     11.91697314	     -8.70178660	     -8.58317925	    -11.69093338	      4.95416694	     -6.53624428	     -0.92298563	     -9.02803320	     14.87308491	     13.20948205	     89.95437384	      0.00000000	      0.00000000	     19.26291334	     11.92463364	    -13.39134668	     36.77394416	     89.95437384	      0.00000000	      0.00000000
      0.67000000	      3.21537937	     -1.62777725	      3.46794874	     -0.48168922	      0.87969801	      0.97693950	     23.02341145	     -1.19035215	    -20.15071821	    -18.39590289	     -0.32106907	     -4.97825610	     -0.13796670	     -4.17392506	    -15.03095330	      2.07792205	      7.85027886	    -18.26208411	     -0.31873350	     11.23712677	     -9.03482812	     -8.93286062	    -11.41123987	      5.22551235	     -6.46532711	     -1.10650639	     -9.06903909	     15.18047761	     13.19054401	     89.95437384	      0.00000000	      0.00000000	     18.82567150	     11.82874360	    -13.18682439	     37.20421335	     89.95437384	      0.00000000	      0.00000000
      0.68000000	      3.18277492	     -1.93157962	      3.73768551	     -0.47061880	      0.87977751	      0.97781940	     22.59513518	     -0.79112481	    -20.10705036	    -18.45357559	     -0.32207565	     -7.27730897	     -0.28948446	     -3.52821267	    -15.20371105	      2.63573515	      7.38532927	    -19.17796921	     -0.33471871	     10.62366006	     -8.64556093	     -8.82890816	    -11.22428425	      5.63344120	     -6.56101558	     -1.20397569	     -9.10342410	     15.22133317	     13.13396339	     89.95437384	      0.00000000	      0.00000000	     18.34857422	     11.62256905	    -12.78218980	     37.54084775	     89.95437384	      0.00000000	      0.00000000
      0.69000000	      2.99971718	     -2.09439880	      3.71402571	     -0.45971471	      0.87985478	      0.97909128	     22.57329602	     -0.49660029	    -19.50072497	    -18.96099651	     -0.33093182	     -7.69981022	     -0.13811004	     -3.38937262	    -15.16050053	      2.90758467	      6.90595087	    -20.12558321	     -0.35125769	      9.93408522	     -8.18778602	     -8.59406361	    -10.92028447	      5.83093888	     -6.34698748	     -1.33566503	     -9.15035053	     15.25384204	     13.19952659	     89.95437384	      0.00000000	      0.00000000	     17.88622616	     11.42343330	    -12.65257614	     37.72690925	     89.95437384	      0.00000000	      0.00000000
      0.70000000	      2.89702705	     -2.58908296	      3.93509146	     -0.44833911	      0.88038673	      0.98028112	     22.18352306	      0.02208853	    -19.85538450	    -19.04561484	     -0.33240869	     -8.37925687	     -0.65941397	     -3.12820275	    -14.95708455	      3.72524304	      6.86450026	    -21.51782192	     -0.37555684	      8.81194286	     -7.38300419	     -8.33403154	    -10.58088401	      6.42329770	     -6.46622946	     -1.20941642	     -9.15047259	     15.47282156	     12.78641796	     89.95437384	      0.00000000	      0.00000000	     17.29969755	     11.19286203	    -12.25211707	     37.70373069	     89.95437384	      0.00000000	      0.00000000
